<?xml version="1.0" standalone="no"?>
<!DOCTYPE svg PUBLIC "-//W3C//DTD SVG 20010904//EN"
 "http://www.w3.org/TR/2001/REC-SVG-20010904/DTD/svg10.dtd">
<svg version="1.0" xmlns="http://www.w3.org/2000/svg"
 width="1280.000000pt" height="1233.000000pt" viewBox="0 0 1280.000000 1233.000000"
 preserveAspectRatio="xMidYMid meet">

<g transform="translate(0.000000,1233.000000) scale(0.100000,-0.100000)"
fill="#000000" stroke="none">
<path d="M6791 12240 c-127 -165 -244 -371 -317 -557 -21 -54 -39 -100 -41
-102 -1 -2 -39 17 -85 41 -217 117 -513 235 -783 313 -138 40 -453 110 -460
103 -1 -2 21 -169 51 -373 29 -203 53 -395 54 -426 0 -102 33 -92 -520 -165
-267 -35 -504 -66 -528 -70 -97 -14 -144 -83 -123 -177 20 -92 141 -283 294
-466 l67 -81 -26 -10 c-62 -24 -233 -116 -308 -165 -170 -113 -348 -274 -362
-329 -8 -32 18 -76 45 -76 10 0 46 33 84 78 159 188 390 347 630 431 48 17 96
35 106 41 42 22 30 76 -16 67 -47 -9 -226 175 -313 322 -46 77 -110 217 -110
241 0 18 315 68 795 126 160 19 309 37 333 40 l43 5 -6 42 c-3 23 -21 213 -40
422 -20 209 -37 388 -39 398 -5 23 9 21 184 -23 308 -77 614 -193 909 -342 85
-43 155 -77 156 -76 1 2 96 179 211 393 155 289 209 399 209 424 0 19 -5 36
-12 38 -6 2 -43 -37 -82 -87z"/>
<path d="M7038 12243 c-10 -2 -18 -8 -18 -11 1 -26 389 -528 578 -749 l112
-132 43 14 c171 57 1190 366 1193 362 3 -2 -23 -165 -57 -361 -34 -196 -60
-358 -58 -360 2 -3 54 2 114 11 152 20 438 12 595 -17 107 -20 277 -64 288
-74 2 -3 -116 -130 -262 -282 -185 -192 -263 -280 -254 -285 7 -4 61 -23 119
-43 213 -71 482 -128 670 -142 48 -4 93 -10 100 -14 9 -6 1 -27 -30 -82 -95
-167 -224 -310 -398 -442 -130 -98 -185 -177 -169 -239 3 -13 29 -52 57 -87
102 -127 182 -267 233 -408 30 -85 33 -120 10 -129 -14 -5 -295 27 -386 44
-25 5 -30 1 -47 -37 l-19 -43 -10 39 c-6 21 -14 54 -17 73 -7 33 -8 34 -21 16
-18 -25 -18 -49 2 -91 20 -43 73 -72 146 -79 86 -10 473 -33 477 -29 9 8 -22
165 -51 259 -39 130 -110 267 -198 383 -46 60 -70 101 -70 118 0 32 49 82 189
194 104 83 245 228 321 329 90 119 122 208 106 296 l-7 36 -87 -7 c-105 -8
-310 9 -436 35 -104 22 -316 88 -316 99 0 4 33 36 73 71 96 85 195 197 266
301 63 93 136 219 129 225 -8 8 -276 64 -403 84 -162 25 -415 51 -509 51 -100
0 -103 4 -77 81 40 124 53 209 55 359 1 145 -17 290 -35 290 -6 0 -65 -24
-132 -54 -338 -149 -829 -297 -1039 -313 l-77 -6 -77 74 c-134 130 -402 458
-499 611 -37 59 -67 74 -117 61z"/>
<path d="M6400 10524 c-14 -2 -59 -9 -100 -15 -561 -80 -985 -414 -1289 -1013
-81 -160 -177 -383 -252 -588 -29 -81 -55 -146 -56 -144 -4 3 53 657 62 719 8
57 -1 44 -25 -35 -52 -174 -180 -380 -318 -509 -69 -66 -199 -165 -207 -158
-5 6 20 121 50 224 49 170 162 427 235 535 9 14 27 42 39 62 l22 38 -34 -15
c-134 -56 -330 -28 -539 77 -43 21 -78 34 -78 29 0 -15 111 -112 180 -157 70
-45 170 -89 226 -100 19 -3 37 -10 39 -14 3 -5 -10 -37 -29 -72 -80 -146 -157
-366 -195 -557 -19 -92 -47 -349 -39 -356 2 -2 106 111 231 251 126 140 231
254 235 254 4 0 79 -323 167 -718 136 -608 160 -729 160 -797 -1 -145 -42
-205 -260 -379 -711 -568 -1155 -823 -1635 -939 -208 -51 -301 -62 -505 -61
-263 1 -115 -34 -1730 404 -783 212 -735 200 -670 162 208 -123 338 -378 320
-625 -5 -73 -4 -92 10 -114 23 -34 144 -89 345 -157 369 -124 706 -186 1106
-205 1112 -53 2214 335 3015 1060 l86 78 -5 -77 c-6 -111 14 -177 123 -402
109 -226 129 -289 129 -415 0 -119 -29 -185 -113 -251 -148 -117 -425 -285
-626 -379 -620 -292 -1329 -455 -2512 -576 -123 -13 -223 -25 -223 -28 0 -3
26 -22 58 -41 33 -20 105 -85 172 -154 224 -234 306 -312 365 -348 103 -62
145 -72 285 -72 142 0 216 16 490 106 837 274 1551 701 2200 1317 l145 138 88
-38 c100 -43 204 -114 242 -164 63 -81 83 -210 46 -290 -10 -22 -35 -54 -55
-70 -103 -82 -134 -135 -157 -272 -23 -138 -51 -231 -104 -338 -117 -240 -328
-455 -628 -642 -51 -31 -270 -147 -487 -258 -429 -218 -523 -273 -705 -409
-138 -104 -403 -363 -517 -506 -320 -404 -581 -904 -824 -1578 -95 -264 -275
-828 -290 -909 l-6 -33 333 0 c184 0 506 3 717 7 l382 6 0 37 c0 45 16 95 43
134 19 26 21 27 27 10 4 -10 10 -57 13 -103 4 -46 9 -86 11 -88 8 -8 46 17 58
40 7 13 15 79 18 162 5 130 8 144 33 187 38 65 99 109 252 183 359 173 769
282 1130 302 153 8 195 -14 195 -104 0 -21 -47 -202 -105 -402 -58 -200 -105
-366 -105 -368 0 -1 232 -3 515 -3 404 0 517 3 520 13 2 6 20 205 40 442 244
2969 337 4061 350 4122 18 79 63 179 95 208 19 18 20 17 20 -6 0 -14 -22 -283
-50 -599 -311 -3611 -358 -4165 -353 -4172 5 -10 324 -10 666 -1 l257 6 0 58
c0 84 27 281 52 374 45 173 139 326 251 410 127 96 136 98 687 141 410 32 476
34 555 24 274 -34 539 -197 704 -431 106 -149 164 -299 182 -472 6 -56 12
-103 13 -104 1 -2 728 -6 1616 -9 1419 -6 1613 -6 1608 7 -3 9 -36 56 -72 107
-259 359 -429 690 -806 1567 -471 1097 -612 1336 -859 1458 -61 30 -73 32
-166 32 -81 -1 -111 -5 -160 -24 -75 -30 -158 -110 -176 -170 -15 -51 -29 -37
-29 29 0 54 36 134 76 172 40 37 111 68 159 68 35 0 -57 51 -700 386 -1367
712 -1311 682 -1356 732 -27 31 -46 66 -59 111 -14 49 -252 1707 -246 1718 1
1 36 9 77 18 170 35 305 111 443 251 199 202 309 477 363 909 25 204 25 815 0
1040 -47 414 -143 836 -274 1196 l-38 104 -7 -130 c-9 -169 -25 -316 -50 -440
-23 -119 -68 -285 -77 -285 -3 0 -100 268 -216 595 -115 327 -210 593 -212
591 -2 -1 -8 -49 -13 -107 -23 -224 -87 -471 -175 -670 -49 -112 -135 -273
-142 -266 -2 3 -9 97 -14 209 -17 372 -70 826 -109 932 -41 107 -116 155 -365
231 -232 70 -470 121 -680 145 -84 9 -448 12 -505 4z m-321 -573 l24 -6 -29
-14 c-36 -16 -127 -26 -151 -16 -16 6 -15 8 7 17 55 23 110 30 149 19z m908
-62 c252 -20 586 -87 668 -132 25 -14 47 -37 59 -61 17 -35 18 -46 7 -97 -38
-187 -167 -489 -297 -699 -30 -49 -54 -91 -54 -94 0 -4 7 -17 15 -30 l15 -23
48 23 c40 19 54 34 89 96 111 193 192 400 248 632 22 90 41 146 53 159 19 19
20 18 40 -44 104 -318 119 -591 43 -764 -13 -30 -16 -47 -9 -51 20 -12 70 -6
89 12 24 22 44 6 34 -25 -19 -60 -192 -109 -420 -118 -113 -5 -147 -2 -265 21
-340 65 -521 80 -884 73 -399 -8 -660 -47 -1026 -152 -129 -37 -149 -37 -188
-1 -84 75 -146 393 -124 624 17 163 29 209 57 216 49 12 119 -34 130 -85 4
-16 10 -31 15 -34 15 -9 41 7 56 37 14 26 14 39 3 94 -18 93 -9 112 75 153 38
18 116 51 174 73 437 165 909 234 1349 197z m-1571 -157 c-11 -19 -112 -81
-141 -88 l-30 -7 40 42 c25 27 56 47 85 55 47 14 56 14 46 -2z m3044 -224 c0
-34 -20 -78 -35 -78 -27 0 -32 77 -9 122 l16 32 14 -25 c7 -13 13 -36 14 -51z
m-3439 -419 c10 -81 1 -106 -32 -88 -21 11 -26 44 -8 55 6 3 9 18 6 32 -5 25
11 87 20 78 3 -2 9 -37 14 -77z m-202 -450 c6 -18 11 -44 11 -59 0 -36 -19
-90 -32 -90 -6 0 -8 8 -6 18 3 10 -1 27 -8 37 -24 33 -12 125 15 125 5 0 14
-14 20 -31z m2055 -67 l40 -7 -60 -20 c-53 -18 -87 -20 -354 -20 -235 -1 -315
-5 -395 -19 -55 -9 -285 -51 -512 -92 -226 -41 -415 -74 -420 -74 -4 1 22 14
59 30 38 16 87 40 110 54 85 49 632 132 988 149 133 6 506 6 544 -1z m574 -43
c63 -23 84 -23 138 -4 48 16 95 7 138 -26 33 -26 36 -69 5 -69 -24 0 -442 80
-448 86 -8 7 21 33 42 37 29 5 61 -1 125 -24z m-354 7 c48 -8 90 -17 93 -20
10 -9 -91 -18 -146 -13 -64 7 -121 25 -121 38 0 13 73 11 174 -5z m-9 -146
c61 -5 167 -17 238 -26 144 -19 147 -23 46 -75 -52 -26 -164 -53 -181 -43 -3
2 -4 12 -1 22 7 28 -23 48 -55 36 -36 -14 -432 -274 -432 -284 0 -4 20 -11 44
-14 81 -12 176 17 386 118 107 52 218 101 245 110 288 91 604 77 875 -39 94
-40 146 -76 161 -109 7 -15 5 -56 -6 -136 -23 -154 -31 -491 -16 -660 17 -185
62 -434 102 -558 l11 -33 35 58 c19 32 51 78 73 103 l38 44 6 -69 c10 -107 27
-242 35 -272 l7 -27 65 59 c210 193 289 366 246 538 -9 36 -24 79 -34 94 l-18
27 -6 -90 c-11 -155 -61 -307 -145 -441 -44 -71 -49 -75 -55 -53 -4 14 -7 77
-8 140 -2 241 72 447 227 629 73 85 125 109 164 74 15 -14 18 -32 18 -132 0
-396 -100 -690 -299 -873 -70 -65 -194 -131 -278 -148 -92 -19 -177 -65 -255
-138 -83 -78 -140 -153 -267 -352 -148 -230 -253 -363 -410 -520 -203 -203
-380 -318 -598 -389 -149 -49 -197 -56 -368 -55 -143 0 -169 3 -250 27 -203
61 -395 182 -681 432 -330 289 -497 546 -609 937 -65 232 -97 430 -155 983
-17 160 -40 351 -51 425 -25 160 -21 210 22 291 55 103 173 189 305 223 215
55 461 -44 755 -305 37 -33 69 -59 72 -59 3 0 -2 26 -10 58 -36 137 -137 263
-265 327 -39 19 -73 34 -74 32 -2 -2 2 -17 8 -35 7 -17 9 -34 5 -38 -4 -4 -50
10 -102 31 -53 21 -92 42 -88 46 11 11 242 54 413 78 128 17 301 34 470 45 93
6 529 -3 645 -14z m-2071 -95 c23 -17 24 -15 -31 -40 -24 -10 -62 -35 -85 -57
-44 -40 -54 -42 -43 -9 5 17 121 120 135 120 3 0 14 -6 24 -14z m3614 -221
c122 -50 241 -112 268 -139 14 -14 24 -36 24 -52 0 -15 -75 -243 -167 -505
-151 -428 -170 -478 -189 -478 -58 0 -93 150 -101 435 -5 189 0 300 29 648 13
158 -3 148 136 91z m441 -290 c50 -43 79 -97 88 -161 l6 -48 -19 23 c-12 15
-34 25 -60 29 -55 7 -94 -27 -146 -131 -40 -82 -91 -146 -115 -146 -17 0 -18
-7 22 117 40 121 151 353 169 353 7 0 31 -16 55 -36z m-733 -1826 c-8 -218
-33 -554 -46 -611 -17 -77 -16 -76 -311 -166 -425 -129 -479 -148 -549 -191
-70 -43 -103 -49 -138 -24 -41 28 -27 46 66 89 335 153 599 439 918 992 32 57
61 103 63 103 2 0 1 -87 -3 -192z m124 -662 c6 -16 9 -30 8 -32 -2 -1 -27 11
-56 27 -43 25 -52 35 -52 57 1 37 24 99 46 123 18 20 19 19 30 -63 7 -46 17
-96 24 -112z m-2429 -244 c26 -15 62 -40 80 -55 40 -35 28 -47 -44 -47 -64 0
-97 31 -97 90 0 22 3 40 8 40 4 0 28 -13 53 -28z m4304 -1991 c47 -27 75 -76
75 -132 0 -58 -14 -71 -29 -27 -15 44 -67 95 -108 109 -19 6 -36 9 -38 7 -2
-2 3 -27 11 -55 8 -28 14 -74 12 -102 l-3 -51 -60 115 c-58 112 -59 116 -40
128 62 38 123 41 180 8z m511 8 c38 -18 63 -49 210 -267 93 -136 183 -269 201
-296 18 -26 33 -59 33 -72 0 -18 5 -24 23 -24 41 0 100 -43 124 -90 57 -110
69 -349 23 -444 -49 -102 -168 -106 -263 -8 -41 42 -508 789 -545 872 -36 81
-41 175 -12 234 23 50 71 92 117 106 41 12 43 12 89 -11z m297 -118 c39 -44
61 -80 53 -88 -11 -12 -78 41 -101 81 -46 79 -21 83 48 7z m-624 -128 c37 -46
55 -127 42 -191 -23 -113 -11 -165 49 -216 24 -20 43 -26 78 -26 46 -1 48 -2
69 -47 l22 -46 -25 -19 c-31 -25 -31 -58 2 -147 22 -60 30 -71 49 -71 13 0 34
-13 48 -30 18 -21 27 -25 30 -16 12 32 -21 101 -54 111 -23 8 -25 25 -3 25 28
0 83 -40 109 -78 47 -68 26 -127 -44 -127 -35 0 -47 7 -80 40 -48 50 -513 764
-505 776 8 13 31 11 65 -7 22 -11 39 -35 64 -90 19 -40 38 -74 44 -74 17 0 41
43 41 76 0 17 -16 61 -35 97 -19 36 -35 71 -35 76 0 22 49 11 69 -16z m882
-213 c10 -6 26 -24 34 -40 16 -30 21 -90 7 -90 -19 0 -52 33 -52 53 -1 12 -7
33 -15 47 -24 41 -15 51 26 30z m-716 -70 c18 -35 18 -40 4 -77 l-11 -28 -19
24 c-19 23 -25 65 -13 95 9 24 22 19 39 -14z m-59 -476 c41 -58 81 -136 99
-194 l7 -25 -27 25 c-64 59 -141 179 -189 295 l-17 40 41 -40 c23 -22 62 -68
86 -101z m444 -229 c17 -9 30 -18 30 -21 0 -10 -70 -34 -99 -34 -16 0 -39 9
-52 20 -24 20 -24 20 -5 35 25 19 89 19 126 0z m-1555 -820 c66 -18 118 -52
139 -93 33 -66 209 -883 193 -898 -11 -11 -87 90 -105 139 -12 31 -45 166 -73
299 -28 134 -52 249 -55 256 -2 6 -16 12 -32 12 -39 0 -79 33 -87 71 -6 26
-17 35 -72 60 -36 16 -69 29 -73 29 -16 0 3 -43 30 -69 15 -14 71 -102 125
-196 54 -93 110 -180 126 -193 33 -26 44 -68 29 -107 l-11 -28 -45 64 c-128
181 -375 621 -355 633 18 12 127 34 166 35 23 1 67 -6 100 -14z"/>
<path d="M6845 9648 c-55 -21 -156 -25 -215 -8 -52 15 -169 12 -231 -6 -114
-34 -222 -121 -273 -222 -14 -27 -34 -87 -46 -133 -12 -47 -41 -120 -66 -165
-35 -65 -44 -91 -44 -131 0 -83 2 -83 230 -72 214 10 288 20 354 49 201 86
223 349 39 457 -68 40 -158 40 -225 1 -55 -33 -88 -82 -88 -132 0 -63 47 -127
107 -147 62 -20 133 21 133 78 0 19 -4 22 -28 17 -33 -7 -108 11 -118 28 -11
17 50 66 90 73 49 10 102 -18 126 -66 83 -162 -121 -305 -287 -203 -67 42
-106 108 -111 190 -4 57 -1 72 27 129 74 150 245 201 414 125 58 -27 103 -25
166 6 54 27 93 74 105 127 7 31 7 31 -59 5z m-671 -594 c9 -3 16 -18 16 -31 0
-25 -1 -26 -51 -20 -63 8 -67 11 -44 37 18 20 49 25 79 14z"/>
<path d="M6001 9524 c-28 -35 -41 -88 -31 -121 9 -32 8 -33 44 75 26 75 22 90
-13 46z"/>
<path d="M7828 9404 c-3 -16 -2 -108 1 -204 l6 -175 29 43 c27 39 28 46 16 65
-9 14 -16 66 -19 142 -6 122 -23 188 -33 129z"/>
<path d="M5487 9281 c-14 -67 -1 -313 14 -261 9 33 10 192 0 250 l-7 45 -7
-34z"/>
<path d="M5227 9204 c-23 -47 -22 -95 3 -122 46 -49 109 -9 90 57 -12 42 -35
78 -58 90 -16 8 -22 4 -35 -25z"/>
<path d="M7739 9103 c-13 -81 4 -230 22 -202 10 16 12 132 3 178 -6 28 -22 43
-25 24z"/>
<path d="M5273 8815 c-9 -26 4 -83 28 -116 21 -30 22 -30 40 -12 10 10 21 32
25 49 11 54 -74 127 -93 79z"/>
<path d="M7443 8065 c-155 -34 -281 -132 -354 -277 -38 -76 -38 -87 3 -79 25
5 34 13 38 34 6 33 37 70 53 64 7 -2 15 -26 18 -54 17 -134 125 -233 255 -233
103 0 214 75 245 166 23 68 16 154 -19 218 -29 55 -30 56 -9 56 39 -1 102 -37
139 -79 43 -50 68 -122 75 -218 3 -40 10 -73 14 -73 5 0 21 19 36 41 41 62 45
160 9 233 -49 100 -166 180 -301 205 -74 14 -124 13 -202 -4z m-35 -209 c28
-56 -42 -102 -90 -59 -24 22 -25 88 -1 102 25 14 75 -10 91 -43z m202 -131 c0
-15 -31 -63 -55 -85 -22 -21 -37 -25 -85 -25 -51 0 -63 4 -89 29 -17 17 -31
33 -31 36 0 4 37 10 83 12 45 3 98 13 117 21 37 16 60 21 60 12z"/>
<path d="M5569 7969 c-214 -23 -356 -238 -278 -420 36 -84 50 -62 58 98 5 91
10 117 27 139 33 44 42 40 49 -23 21 -171 123 -286 254 -287 96 0 174 56 259
186 54 83 59 106 33 157 -52 101 -232 169 -402 150z m12 -180 c8 -48 33 -92
69 -123 35 -29 98 -49 126 -40 14 4 11 -2 -9 -20 -49 -46 -149 -33 -204 26
-23 24 -67 115 -78 160 -6 25 -4 27 32 31 55 5 57 4 64 -34z"/>
<path d="M6260 7694 c0 -26 5 -64 12 -85 11 -39 71 -119 89 -119 14 0 11 82
-6 131 -16 46 -69 119 -86 119 -5 0 -9 -21 -9 -46z"/>
<path d="M7490 7446 c-201 -12 -250 -22 -250 -50 0 -17 41 -25 170 -32 102 -6
206 3 318 28 49 10 53 14 50 37 -4 32 -10 33 -288 17z"/>
<path d="M5850 7414 c-36 -8 -129 -17 -207 -20 -79 -4 -143 -11 -143 -15 0
-14 31 -39 57 -45 43 -11 255 3 326 21 51 13 67 21 63 32 -4 8 -6 21 -6 29 0
16 -3 16 -90 -2z"/>
<path d="M7776 7131 c-17 -19 -17 -20 6 -34 32 -20 431 -101 460 -93 12 3 30
10 38 16 13 9 13 11 0 20 -29 19 -196 69 -303 89 -136 26 -179 27 -201 2z"/>
<path d="M5325 7075 c-33 -7 -73 -18 -90 -25 -43 -16 -135 -73 -135 -83 0 -11
113 -1 210 20 96 20 241 84 214 94 -30 12 -133 9 -199 -6z"/>
<path d="M6272 6962 c-86 -161 -83 -352 8 -509 28 -49 32 -52 56 -42 44 16 45
18 20 67 -69 137 -86 268 -47 377 11 33 21 74 22 90 3 34 -9 75 -20 75 -5 0
-22 -26 -39 -58z"/>
<path d="M5371 6682 c-58 -30 -135 -101 -165 -152 l-18 -32 23 7 c103 29 204
107 228 176 13 37 3 37 -68 1z"/>
<path d="M7836 6682 c-2 -4 2 -22 9 -39 15 -35 50 -56 162 -98 76 -29 175 -90
218 -135 32 -33 55 -27 55 15 0 44 -151 159 -277 210 -81 32 -162 55 -167 47z"/>
<path d="M6545 6534 c-26 -26 -17 -102 15 -125 33 -24 76 -30 71 -9 -1 8 -5
40 -8 71 -5 48 -9 59 -30 68 -30 14 -29 14 -48 -5z"/>
<path d="M5454 6322 c-77 -61 -205 -242 -171 -242 23 0 108 68 150 119 34 42
84 148 74 158 -3 2 -26 -14 -53 -35z"/>
<path d="M7720 6305 c0 -45 63 -99 213 -183 157 -89 175 -96 197 -81 12 8 6
18 -35 55 -86 78 -329 234 -365 234 -5 0 -10 -11 -10 -25z"/>
<path d="M7404 6140 c-17 -17 -169 -32 -336 -33 l-158 -2 0 -25 c0 -53 0 -53
241 -48 234 5 256 9 284 51 25 39 -1 87 -31 57z"/>
<path d="M6595 6103 c-150 -9 -433 -42 -457 -53 -37 -17 -43 -38 -14 -51 17
-8 104 -5 327 11 167 12 309 23 315 25 7 2 14 20 16 39 l4 36 -66 -2 c-36 -1
-92 -3 -125 -5z"/>
<path d="M6578 5749 c-77 -22 -26 -53 87 -53 44 -1 89 3 100 7 18 8 16 11 -18
28 -46 24 -119 32 -169 18z"/>
<path d="M10829 2914 c-20 -21 -24 -38 -27 -102 -9 -204 94 -402 367 -706 90
-100 210 -216 224 -216 11 0 37 71 37 103 0 32 -4 37 -54 61 -54 27 -96 71
-117 123 -7 15 -13 69 -14 118 -1 79 -5 98 -32 150 -17 33 -40 71 -51 85 -20
24 -21 24 -39 7 -15 -14 -18 -34 -18 -104 0 -53 -4 -88 -11 -90 -14 -5 -84
147 -117 252 -27 85 -41 159 -52 263 -5 46 -12 65 -25 72 -29 16 -45 12 -71
-16z"/>
<path d="M9386 9878 c-16 -69 -16 -84 -5 -137 6 -31 18 -67 26 -81 13 -23 13
-15 8 75 -3 55 -9 116 -14 135 l-8 35 -7 -27z"/>
<path d="M8699 5916 c-18 -90 -38 -139 -99 -235 -26 -43 -40 -76 -40 -98 0
-35 15 -73 28 -73 5 0 28 47 52 105 25 58 47 105 51 105 3 0 15 -54 28 -120
13 -66 27 -123 32 -125 4 -3 16 9 26 27 29 54 22 175 -20 347 -20 79 -37 145
-39 146 -2 2 -10 -34 -19 -79z"/>
<path d="M12320 1521 c0 -33 5 -63 10 -66 6 -3 10 -1 10 6 0 7 8 5 20 -6 32
-29 33 -20 5 103 -3 14 -13 22 -25 22 -18 0 -20 -7 -20 -59z"/>
<path d="M12147 1512 c-27 -29 -21 -69 15 -105 l32 -32 7 30 c5 16 10 50 11
75 3 42 1 45 -23 48 -15 2 -32 -5 -42 -16z"/>
<path d="M12443 1057 c-7 -15 -13 -35 -13 -43 0 -9 -7 -22 -15 -30 -8 -9 -15
-27 -15 -40 0 -29 26 -84 40 -84 12 0 22 91 18 165 -3 57 -4 58 -15 32z"/>
</g>
</svg>
